<svg width="20" height="21" viewBox="0 0 20 21" fill="none" xmlns="http://www.w3.org/2000/svg">
<path d="M19.6132 18.6525L15.8478 14.8982C17.0627 13.3505 17.7219 11.4392 17.7194 9.47164C17.7194 7.71936 17.1998 6.00643 16.2263 4.54946C15.2528 3.09249 13.8691 1.95692 12.2502 1.28635C10.6313 0.615777 8.84988 0.440326 7.13126 0.782179C5.41265 1.12403 3.834 1.96784 2.59495 3.20689C1.3559 4.44594 0.512094 6.02459 0.170241 7.7432C-0.171613 9.46182 0.00383874 11.2432 0.674409 12.8621C1.34498 14.481 2.48055 15.8647 3.93752 16.8382C5.39449 17.8117 7.10742 18.3313 8.8597 18.3313C10.8273 18.3338 12.7385 17.6746 14.2863 16.4597L18.0406 20.2251C18.1435 20.3289 18.266 20.4113 18.401 20.4675C18.5359 20.5237 18.6807 20.5527 18.8269 20.5527C18.9731 20.5527 19.1178 20.5237 19.2528 20.4675C19.3877 20.4113 19.5102 20.3289 19.6132 20.2251C19.717 20.1222 19.7994 19.9997 19.8556 19.8647C19.9118 19.7298 19.9408 19.585 19.9408 19.4388C19.9408 19.2926 19.9118 19.1479 19.8556 19.0129C19.7994 18.8779 19.717 18.7555 19.6132 18.6525ZM2.21493 9.47164C2.21493 8.15743 2.60464 6.87273 3.33478 5.78C4.06491 4.68728 5.10269 3.8356 6.31686 3.33267C7.53103 2.82974 8.86708 2.69815 10.156 2.95455C11.445 3.21094 12.629 3.84379 13.5583 4.77308C14.4876 5.70237 15.1204 6.88635 15.3768 8.17531C15.6332 9.46427 15.5016 10.8003 14.9987 12.0145C14.4958 13.2287 13.6441 14.2664 12.5513 14.9966C11.4586 15.7267 10.1739 16.1164 8.8597 16.1164C7.0974 16.1164 5.40728 15.4163 4.16114 14.1702C2.915 12.9241 2.21493 11.2339 2.21493 9.47164Z" fill="#FF7F27"/>
</svg>
